<svg xmlns="http://www.w3.org/2000/svg" xmlns:xlink="http://www.w3.org/1999/xlink" width="64" zoomAndPan="magnify" viewBox="0 0 48 48" height="64" preserveAspectRatio="xMidYMid meet" version="1.2"><defs><clipPath id="81d59f4b6c"><path d="M 0.488281 0 L 47.507812 0 L 47.507812 47.019531 L 0.488281 47.019531 Z M 0.488281 0 "/></clipPath></defs><g id="7d7224a777"><g clip-rule="nonzero" clip-path="url(#81d59f4b6c)"><path style=" stroke:none;fill-rule:nonzero;fill:#ffffff;fill-opacity:1;" d="M 0.488281 0 L 47.511719 0 L 47.511719 47.019531 L 0.488281 47.019531 Z M 0.488281 0 "/><path style=" stroke:none;fill-rule:nonzero;fill:#ffffff;fill-opacity:1;" d="M 0.488281 0 L 47.511719 0 L 47.511719 47.019531 L 0.488281 47.019531 Z M 0.488281 0 "/></g><g style="fill:#000000;fill-opacity:1;"><g transform="translate(11.098812, 39.946749)"><path style="stroke:none" d="M 12.140625 -34.125 C 13.535156 -34.125 14.632812 -33.972656 15.4375 -33.671875 C 16.25 -33.367188 17.082031 -32.929688 17.9375 -32.359375 C 18.632812 -31.921875 19.171875 -31.703125 19.546875 -31.703125 C 19.835938 -31.703125 20.0625 -31.863281 20.21875 -32.1875 C 20.375 -32.519531 20.5 -33.050781 20.59375 -33.78125 L 21.6875 -33.78125 C 21.53125 -31.945312 21.453125 -28.722656 21.453125 -24.109375 L 20.359375 -24.109375 C 20.171875 -26.671875 19.4375 -28.828125 18.15625 -30.578125 C 16.875 -32.335938 15.015625 -33.21875 12.578125 -33.21875 C 10.867188 -33.21875 9.472656 -32.703125 8.390625 -31.671875 C 7.316406 -30.640625 6.78125 -29.320312 6.78125 -27.71875 C 6.78125 -26.507812 7.054688 -25.460938 7.609375 -24.578125 C 8.171875 -23.691406 8.878906 -22.929688 9.734375 -22.296875 C 10.585938 -21.671875 11.800781 -20.867188 13.375 -19.890625 L 14.765625 -19.03125 C 16.753906 -17.789062 18.328125 -16.703125 19.484375 -15.765625 C 20.640625 -14.835938 21.5625 -13.769531 22.25 -12.5625 C 22.945312 -11.363281 23.296875 -9.960938 23.296875 -8.359375 C 23.296875 -5.472656 22.347656 -3.242188 20.453125 -1.671875 C 18.554688 -0.109375 16.148438 0.671875 13.234375 0.671875 C 11.722656 0.671875 10.484375 0.507812 9.515625 0.1875 C 8.546875 -0.125 7.617188 -0.550781 6.734375 -1.09375 C 6.035156 -1.53125 5.5 -1.75 5.125 -1.75 C 4.84375 -1.75 4.617188 -1.582031 4.453125 -1.25 C 4.296875 -0.925781 4.171875 -0.398438 4.078125 0.328125 L 2.984375 0.328125 C 3.109375 -1.410156 3.171875 -5.207031 3.171875 -11.0625 L 4.265625 -11.0625 C 4.492188 -7.863281 5.285156 -5.265625 6.640625 -3.265625 C 8.003906 -1.273438 10.09375 -0.28125 12.90625 -0.28125 C 14.613281 -0.28125 16.066406 -0.8125 17.265625 -1.875 C 18.472656 -2.9375 19.078125 -4.507812 19.078125 -6.59375 C 19.078125 -8.363281 18.484375 -9.863281 17.296875 -11.09375 C 16.109375 -12.332031 14.234375 -13.726562 11.671875 -15.28125 C 9.804688 -16.414062 8.296875 -17.425781 7.140625 -18.3125 C 5.984375 -19.195312 5.039062 -20.265625 4.3125 -21.515625 C 3.59375 -22.765625 3.234375 -24.226562 3.234375 -25.90625 C 3.234375 -28.5625 4.085938 -30.59375 5.796875 -32 C 7.503906 -33.414062 9.617188 -34.125 12.140625 -34.125 Z M 12.140625 -34.125 "/></g></g></g></svg>